<svg
                    width="24"
                    height="25"
                    viewBox="0 0 24 25"
                    fill="none"
                    xmlns="http://www.w3.org/2000/svg"
                  >
                    <path
                      d="M22 6.49996V8.91996C22 10.5 21 11.5 19.42 11.5H16V4.50996C16 3.39996 16.91 2.48996 18.02 2.49996C19.11 2.50996 20.11 2.94996 20.83 3.66996C21.55 4.39996 22 5.39996 22 6.49996Z"
                      class="fill-current"
                    />
                    <path
                      opacity="0.4"
                      d="M2 7.5V21.5C2 22.33 2.94 22.8 3.6 22.3L5.31 21.02C5.71 20.72 6.27 20.76 6.63 21.12L8.29 22.79C8.68 23.18 9.32 23.18 9.71 22.79L11.39 21.11C11.74 20.76 12.3 20.72 12.69 21.02L14.4 22.3C15.06 22.79 16 22.32 16 21.5V4.5C16 3.4 16.9 2.5 18 2.5H7H6C3 2.5 2 4.29 2 6.5V7.5Z"
                      class="fill-current"
                    />
                    <path
                      d="M12 12.76H9C8.59 12.76 8.25 13.1 8.25 13.51C8.25 13.92 8.59 14.26 9 14.26H12C12.41 14.26 12.75 13.92 12.75 13.51C12.75 13.1 12.41 12.76 12 12.76Z"
                      class="fill-current"
                    />
                    <path
                      d="M9 10.26H12C12.41 10.26 12.75 9.92001 12.75 9.51001C12.75 9.10001 12.41 8.76001 12 8.76001H9C8.59 8.76001 8.25 9.10001 8.25 9.51001C8.25 9.92001 8.59 10.26 9 10.26Z"
                      class="fill-current"
                    />
                    <path
                      d="M5.96997 8.51001C5.40997 8.51001 4.96997 8.96001 4.96997 9.51001C4.96997 10.06 5.41997 10.51 5.96997 10.51C6.51997 10.51 6.96997 10.06 6.96997 9.51001C6.96997 8.96001 6.51997 8.51001 5.96997 8.51001Z"
                      class="fill-current"
                    />
                    <path
                      d="M5.96997 12.51C5.40997 12.51 4.96997 12.96 4.96997 13.51C4.96997 14.06 5.41997 14.51 5.96997 14.51C6.51997 14.51 6.96997 14.06 6.96997 13.51C6.96997 12.96 6.51997 12.51 5.96997 12.51Z"
                      class="fill-current"
                    />
                  </svg>