<svg
                    width="24"
                    height="25"
                    viewBox="0 0 24 25"
                    fill="none"
                    xmlns="http://www.w3.org/2000/svg"
                  >
                    <path
                      d="M19.33 6.18003L13.06 2.80003C12.4 2.44003 11.6 2.44003 10.94 2.80003L4.67 6.18003C4.21 6.43003 3.93 6.91003 3.93 7.46003C3.93 8.00003 4.21 8.49003 4.67 8.74003L10.94 12.12C11.27 12.3 11.64 12.39 12 12.39C12.36 12.39 12.73 12.3 13.06 12.12L19.33 8.74003C19.79 8.49003 20.07 8.01003 20.07 7.46003C20.07 6.91003 19.79 6.43003 19.33 6.18003Z"
                      class="fill-current"
                    />
                    <path
                      opacity="0.4"
                      d="M9.91 13.29L4.07 10.37C3.62 10.15 3.1 10.17 2.68 10.43C2.25 10.7 2 11.15 2 11.65V17.16C2 18.11 2.53 18.97 3.38 19.4L9.21 22.32C9.41 22.42 9.63 22.47 9.85 22.47C10.11 22.47 10.37 22.4 10.6 22.26C11.03 22 11.28 21.54 11.28 21.04V15.53C11.29 14.57 10.76 13.71 9.91 13.29Z"
                      class="fill-current"
                    />
                    <path
                      opacity="0.4"
                      d="M21.32 10.43C20.89 10.17 20.37 10.14 19.93 10.37L14.1 13.29C13.25 13.72 12.72 14.57 12.72 15.53V21.04C12.72 21.54 12.97 22 13.4 22.26C13.63 22.4 13.89 22.47 14.15 22.47C14.37 22.47 14.59 22.42 14.79 22.32L20.62 19.4C21.47 18.97 22 18.12 22 17.16V11.65C22 11.15 21.75 10.7 21.32 10.43Z"
                      class="fill-current"
                    />
                  </svg>